<?xml version="1.0" encoding="utf-8"?>
<!-- Generator: Adobe Illustrator 16.0.0, SVG Export Plug-In . SVG Version: 6.00 Build 0)  -->
<!DOCTYPE svg PUBLIC "-//W3C//DTD SVG 1.1//EN" "http://www.w3.org/Graphics/SVG/1.1/DTD/svg11.dtd">
<svg version="1.1" id="Layer_1" xmlns="http://www.w3.org/2000/svg" xmlns:xlink="http://www.w3.org/1999/xlink" x="0px" y="0px"
	 width="495.333px" height="81.75px" viewBox="0 0 495.333 81.75" enable-background="new 0 0 495.333 81.75" xml:space="preserve">
<g>
	<path fill="#FFFFFF" d="M172.427,31.685c-5.162,0-8.921,3.822-8.921,9.686c0,5.865,3.759,10.07,8.921,10.07
		c5.1,0,8.923-4.205,8.923-10.07C181.35,35.507,177.526,31.685,172.427,31.685z"/>
	<path fill="#FFFFFF" d="M353.881,31.685c-5.163,0-8.923,3.822-8.923,9.686c0,5.865,3.76,10.07,8.923,10.07
		c5.098,0,8.922-4.205,8.922-10.07C362.803,35.507,358.979,31.685,353.881,31.685z"/>
	<path fill="#FFFFFF" d="M114.748,31.685c-5.164,0-8.923,3.822-8.923,9.686c0,5.865,3.759,10.07,8.923,10.07
		c5.098,0,8.923-4.205,8.923-10.07C123.67,35.507,119.846,31.685,114.748,31.685z"/>
	<path fill="#FFFFFF" d="M495.333,7.138V0H0v7.138h-0.032v75.604h495.657V7.138H495.333z M64.845,64.188H44.386V19.064h18.546
		c7.33,0,17.589,1.529,17.589,11.981c0,4.845-2.676,7.967-6.627,9.498v0.19c4.332,1.02,8.478,4.652,8.478,10.26
		C82.372,60.872,73.639,64.188,64.845,64.188z M114.748,65.462c-14.276,0-25.048-9.623-25.048-24.093
		c0-14.465,10.772-23.581,25.048-23.581s25.11,9.116,25.11,23.581C139.857,55.839,129.023,65.462,114.748,65.462z M172.427,65.462
		c-14.274,0-25.046-9.623-25.046-24.093c0-14.465,10.772-23.581,25.046-23.581c14.277,0,25.111,9.116,25.111,23.581
		C197.538,55.839,186.704,65.462,172.427,65.462z M234.058,64.188l-12.045-17.971h-0.127v17.971h-14.787V19.064h14.723v16.633h0.129
		l12.045-16.633h17.846l-16.953,20.65l17.78,24.473H234.058z M319.271,64.188h-15.486l-12.491-21.542h-0.255l0.639,21.542h-14.404
		V19.064h15.105l12.872,22.88h0.257l-0.639-22.88h14.402V64.188z M353.881,65.462c-14.277,0-25.048-9.623-25.048-24.093
		c0-14.465,10.771-23.581,25.048-23.581c14.274,0,25.108,9.116,25.108,23.581C378.989,55.839,368.155,65.462,353.881,65.462z
		 M440.43,64.188h-15.294l-6.374-25.494h-0.255l-6.564,25.494h-15.297l-12.299-45.123h16.061l4.844,25.366h0.253l5.229-25.366H426.6
		l5.673,25.366h0.257l4.905-25.366h15.552L440.43,64.188z"/>
	<path fill="#FFFFFF" d="M62.421,46.149h-3.888v6.121h4.527c2.357,0,4.015-1.083,4.015-3.125
		C67.075,46.725,64.27,46.149,62.421,46.149z"/>
	<path fill="#FFFFFF" d="M66.247,33.404c0-1.72-1.594-2.55-3.953-2.55h-3.761v5.544h4.079
		C64.716,36.398,66.247,35.444,66.247,33.404z"/>
</g>
<g>
</g>
<g>
</g>
<g>
</g>
<g>
</g>
<g>
</g>
<g>
</g>
</svg>
