<?xml version="1.0" encoding="utf-8"?>
<!-- Generator: Adobe Illustrator 16.0.0, SVG Export Plug-In . SVG Version: 6.00 Build 0)  -->
<!DOCTYPE svg PUBLIC "-//W3C//DTD SVG 1.1//EN" "http://www.w3.org/Graphics/SVG/1.1/DTD/svg11.dtd">
<svg version="1.1" id="Layer_1" xmlns="http://www.w3.org/2000/svg" xmlns:xlink="http://www.w3.org/1999/xlink" x="0px" y="0px"
	 width="137.161px" height="39.201px" viewBox="0 0 137.161 39.201" enable-background="new 0 0 137.161 39.201"
	 xml:space="preserve">
<path fill="#FFFFFF" d="M53.579,15.13c-2.43,0-4.199,1.8-4.199,4.56s1.77,4.74,4.199,4.74c2.399,0,4.2-1.98,4.2-4.74
	S55.979,15.13,53.579,15.13"/>
<path fill="#FFFFFF" d="M80.729,15.13c-2.431,0-4.2,1.8-4.2,4.56s1.77,4.74,4.2,4.74c2.399,0,4.199-1.98,4.199-4.74
	S83.129,15.13,80.729,15.13"/>
<path fill="#FFFFFF" d="M30.75,15.939c0-0.81-0.75-1.2-1.86-1.2h-1.77v2.61h1.92C30.029,17.35,30.75,16.9,30.75,15.939"/>
<path fill="#FFFFFF" d="M28.95,21.94h-1.83v2.88h2.13c1.109,0,1.889-0.511,1.889-1.47C31.139,22.209,29.819,21.94,28.95,21.94"/>
<path fill="#FFFFFF" d="M0,39.201h137.379V3.614H0V39.201z M29.989,30.466h-9.63V9.228h8.729c3.449,0,8.279,0.72,8.279,5.64
	c0,2.28-1.259,3.749-3.119,4.47v0.09c2.039,0.479,3.99,2.188,3.99,4.829C38.239,28.908,34.129,30.466,29.989,30.466 M53.479,31.068
	c-6.72,0-11.789-4.531-11.789-11.34c0-6.81,5.069-11.1,11.789-11.1s11.819,4.29,11.819,11.1
	C65.298,26.537,60.198,31.068,53.479,31.068 M80.629,31.068c-6.72,0-11.79-4.531-11.79-11.34c0-6.81,5.07-11.1,11.79-11.1
	s11.819,4.29,11.819,11.1C92.448,26.537,87.349,31.068,80.629,31.068 M109.639,30.466l-5.67-8.459h-0.061v8.459h-6.959V9.228h6.93
	v7.83h0.06l5.67-7.83h8.399l-7.979,9.719l8.37,11.519H109.639z"/>
<rect fill="#FFFFFF" width="137.162" height="6.212"/>
<g>
</g>
<g>
</g>
<g>
</g>
<g>
</g>
<g>
</g>
<g>
</g>
</svg>
