<?xml version="1.0" encoding="utf-8"?>
<!-- Generator: Adobe Illustrator 16.0.0, SVG Export Plug-In . SVG Version: 6.00 Build 0)  -->
<!DOCTYPE svg PUBLIC "-//W3C//DTD SVG 1.1//EN" "http://www.w3.org/Graphics/SVG/1.1/DTD/svg11.dtd">
<svg version="1.1" id="Layer_1" xmlns="http://www.w3.org/2000/svg" xmlns:xlink="http://www.w3.org/1999/xlink" x="0px" y="0px"
	 width="321.5px" height="39px" viewBox="0 0 321.5 39" enable-background="new 0 0 321.5 39" xml:space="preserve">
<path fill="#FFFFFF" d="M269.908,14.866h-1.71v3.42h1.409c0.99,0,2.49-0.24,2.49-1.771
	C272.098,15.015,270.809,14.866,269.908,14.866"/>
<polygon fill="#FFFFFF" points="244.438,21.976 247.889,21.976 246.178,16.726 "/>
<path fill="#FFFFFF" d="M167.219,15.256c-2.432,0-4.2,1.8-4.2,4.56c0,2.761,1.769,4.74,4.2,4.74c2.398,0,4.199-1.979,4.199-4.74
	C171.418,17.056,169.617,15.256,167.219,15.256"/>
<path fill="#FFFFFF" d="M140.068,15.256c-2.43,0-4.199,1.8-4.199,4.56c0,2.761,1.77,4.74,4.199,4.74c2.4,0,4.199-1.979,4.199-4.74
	C144.268,17.056,142.469,15.256,140.068,15.256"/>
<path fill="#FFFFFF" d="M192.148,14.866h-1.5v3.42h1.5c1.08,0,2.16-0.51,2.16-1.771C194.309,15.166,193.229,14.866,192.148,14.866"
	/>
<path fill="#FFFFFF" d="M27.479,16.066c0-0.812-0.75-1.2-1.859-1.2h-1.771v2.609h1.92C26.757,17.476,27.479,17.026,27.479,16.066"/>
<path fill="#FFFFFF" d="M25.679,22.065h-1.83v2.88h2.13c1.109,0,1.89-0.51,1.89-1.47C27.869,22.337,26.549,22.065,25.679,22.065"/>
<path fill="#FFFFFF" d="M292.737,15.376h-1.59v9.06h1.318c3.331,0,5.222-1.38,5.222-4.68
	C297.688,17.026,295.737,15.376,292.737,15.376"/>
<g>
</g>
<path fill="#FFFFFF" d="M0.25-0.25v3.952H0.178v35.586H321.5V7V3.702V-0.25H0.25z M26.818,30.556H17.19V9.316h8.728
	c3.451,0,8.28,0.72,8.28,5.64c0,2.28-1.259,3.75-3.12,4.47v0.09c2.04,0.479,3.99,2.19,3.99,4.83
	C35.068,28.995,30.959,30.556,26.818,30.556z M59.068,22.216c0,5.04-3.419,8.939-10.05,8.939c-6.629,0-9.84-3.899-9.84-8.939V9.316
	h7.14v12.119c0,2.01,1.02,3.24,2.821,3.24c1.799,0,2.819-1.23,2.819-3.24V9.316h7.11V22.216z M76.678,21.855v8.7h-7.14v-8.7
	L61.529,9.316h8.61l3.359,6.239l3.21-6.239h8.4L76.678,21.855z M120.208,30.556h-7.2l-3-12h-0.119l-3.09,12h-7.2l-5.79-21.239h7.561
	l2.279,11.939h0.121l2.459-11.939h7.469l2.67,11.939h0.121l2.31-11.939h7.319L120.208,30.556z M140.068,31.155
	c-6.72,0-11.789-4.529-11.789-11.34c0-6.81,5.069-11.1,11.789-11.1s11.819,4.29,11.819,11.1
	C151.888,26.626,146.788,31.155,140.068,31.155z M167.219,31.155c-6.721,0-11.79-4.529-11.79-11.34c0-6.81,5.069-11.1,11.79-11.1
	c6.719,0,11.818,4.29,11.818,11.1C179.037,26.626,173.938,31.155,167.219,31.155z M192.658,23.716h-2.01v6.84h-7.109V9.316h9.119
	c4.32,0,8.699,1.649,8.699,7.14C201.357,21.706,197.068,23.716,192.658,23.716z M225.568,24.466c1.619,0,2.85-0.78,3.51-1.71
	l4.379,5.25c-1.889,1.89-4.77,3.149-8.309,3.149c-6.42,0-11.55-4.529-11.55-11.22c0-6.81,5.13-11.22,11.55-11.22
	c3.27,0,6.359,1.141,8.309,2.94l-4.379,5.279c-0.78-1.05-2.04-1.59-3.51-1.59c-2.37,0-4.291,1.771-4.291,4.59
	C221.277,22.695,223.258,24.466,225.568,24.466z M250.588,30.556l-1.109-3.12h-6.75l-1.051,3.12h-7.559l8.369-21.239h7.59
	l8.279,21.239H250.588z M272.548,30.556l-4.079-7.59h-0.211v7.59h-6.899V9.316h9.149c4.2,0,8.58,1.5,8.58,6.899
	c0,2.58-1.35,4.65-3.721,5.729l5.4,8.61H272.548z M292.797,30.556h-8.52V9.316h7.92c6.689,0,12.72,2.37,12.72,10.499
	C304.917,27.284,299.098,30.556,292.797,30.556z"/>
<g>
</g>
<g>
</g>
<g>
</g>
<g>
</g>
<g>
</g>
<g>
</g>
</svg>
