<?xml version="1.0" encoding="utf-8"?>
<!-- Generator: Adobe Illustrator 16.0.0, SVG Export Plug-In . SVG Version: 6.00 Build 0)  -->
<!DOCTYPE svg PUBLIC "-//W3C//DTD SVG 1.1//EN" "http://www.w3.org/Graphics/SVG/1.1/DTD/svg11.dtd">
<svg version="1.1" id="Layer_1" xmlns="http://www.w3.org/2000/svg" xmlns:xlink="http://www.w3.org/1999/xlink" x="0px" y="0px"
	 width="532.25px" height="40.5px" viewBox="0 0 532.25 40.5" enable-background="new 0 0 532.25 40.5" xml:space="preserve">
<path fill="#FFFFFF" d="M156.286,16.378c-2.431,0-4.2,1.8-4.2,4.56c0,2.761,1.769,4.74,4.2,4.74c2.399,0,4.199-1.979,4.199-4.74
	C160.485,18.178,158.685,16.378,156.286,16.378"/>
<path fill="#FFFFFF" d="M235.966,16.378c-2.431,0-4.2,1.8-4.2,4.56c0,2.761,1.77,4.74,4.2,4.74c2.399,0,4.199-1.979,4.199-4.74
	C240.165,18.178,238.365,16.378,235.966,16.378"/>
<polygon fill="#FFFFFF" points="399.015,23.098 402.464,23.098 400.754,17.848 "/>
<path fill="#FFFFFF" d="M285.585,15.987h-1.71v3.42h1.409c0.99,0,2.49-0.239,2.49-1.77
	C287.774,16.138,286.485,15.987,285.585,15.987"/>
<path fill="#FFFFFF" d="M339.794,16.378c-2.43,0-4.199,1.8-4.199,4.56c0,2.761,1.77,4.74,4.199,4.74c2.399,0,4.2-1.979,4.2-4.74
	C343.994,18.178,342.193,16.378,339.794,16.378"/>
<path fill="#FFFFFF" d="M0,0v9.25h0.1v31.161L532.25,40.5V9.25V4.828V0H0z M33.526,25.587c1.619,0,2.849-0.779,3.509-1.709
	l4.379,5.25c-1.888,1.889-4.769,3.149-8.308,3.149c-6.42,0-11.55-4.53-11.55-11.22c0-6.81,5.13-11.22,11.55-11.22
	c3.269,0,6.359,1.14,8.308,2.94l-4.379,5.279c-0.78-1.05-2.04-1.59-3.509-1.59c-2.37,0-4.29,1.77-4.29,4.59
	C29.237,23.817,31.216,25.587,33.526,25.587z M64.995,31.677h-7.138v-8.069h-5.821v8.069h-7.139V10.438h7.11v7.199h5.819v-7.199
	h7.169V31.677z M85.576,31.677h-15.12V10.438h14.61v5.939h-7.89v1.83h7.409v5.55h-7.409v1.979h8.4V31.677z M101.056,25.587
	c1.619,0,2.85-0.779,3.51-1.709l4.379,5.25c-1.889,1.889-4.77,3.149-8.309,3.149c-6.42,0-11.55-4.53-11.55-11.22
	c0-6.81,5.13-11.22,11.55-11.22c3.27,0,6.359,1.14,8.309,2.94l-4.379,5.279c-0.78-1.05-2.04-1.59-3.51-1.59
	c-2.37,0-4.29,1.77-4.29,4.59C96.766,23.817,98.745,25.587,101.056,25.587z M125.117,31.677l-5.67-8.459h-0.061v8.459h-6.959V10.438
	h6.93v7.829h0.059l5.669-7.829h8.401l-7.98,9.719l8.37,11.52H125.117z M156.286,32.277c-6.72,0-11.79-4.53-11.79-11.34
	s5.07-11.1,11.79-11.1c6.719,0,11.819,4.29,11.819,11.1S163.005,32.277,156.286,32.277z M192.195,23.337
	c0,5.041-3.42,8.94-10.049,8.94c-6.631,0-9.84-3.899-9.84-8.94V10.438h7.14v12.119c0,2.01,1.02,3.24,2.819,3.24
	c1.801,0,2.82-1.23,2.82-3.24V10.438h7.11V23.337z M213.165,16.468h-5.22v15.209h-7.139V16.468h-5.221v-6.029h17.58V16.468z
	 M235.966,32.277c-6.722,0-11.79-4.53-11.79-11.34s5.068-11.1,11.79-11.1c6.719,0,11.819,4.29,11.819,11.1
	S242.685,32.277,235.966,32.277z M271.875,23.337c0,5.041-3.42,8.94-10.049,8.94c-6.631,0-9.84-3.899-9.84-8.94V10.438h7.139v12.119
	c0,2.01,1.021,3.24,2.82,3.24c1.799,0,2.819-1.23,2.819-3.24V10.438h7.11V23.337z M288.225,31.677l-4.079-7.59h-0.211v7.59h-6.899
	V10.438h9.149c4.2,0,8.58,1.5,8.58,6.899c0,2.58-1.35,4.649-3.721,5.729l5.4,8.609H288.225z M317.505,17.968
	c3.06,0.99,7.17,2.34,7.17,6.72c0,5.13-4.472,7.59-8.76,7.59c-3.421,0-6.779-1.29-8.939-3.21l4.35-4.74
	c0.99,1.08,2.82,2.07,4.56,2.07c0.81,0,1.59-0.24,1.59-0.99c0-0.779-0.75-1.08-3.75-2.07c-2.88-0.959-5.489-2.489-5.489-6.209
	c0-5.279,4.74-7.29,8.909-7.29c2.79,0,5.909,1.14,8.1,3.149l-4.439,4.53c-0.96-1.2-2.55-1.829-3.66-1.829
	c-1.05,0-1.739,0.27-1.739,0.959C315.405,17.278,316.034,17.487,317.505,17.968z M339.794,32.277c-6.719,0-11.789-4.53-11.789-11.34
	s5.07-11.1,11.789-11.1c6.721,0,11.82,4.29,11.82,11.1S346.515,32.277,339.794,32.277z M367.124,25.587
	c1.62,0,2.85-0.779,3.51-1.709l4.381,5.25c-1.891,1.889-4.771,3.149-8.312,3.149c-6.419,0-11.548-4.53-11.548-11.22
	c0-6.81,5.129-11.22,11.548-11.22c3.271,0,6.36,1.14,8.312,2.94l-4.381,5.279c-0.779-1.05-2.039-1.59-3.51-1.59
	c-2.369,0-4.289,1.77-4.289,4.59C362.835,23.817,364.814,25.587,367.124,25.587z M385.694,31.677h-7.198V10.438h7.198V31.677z
	 M405.162,31.677l-1.108-3.119h-6.75l-1.05,3.119h-7.56l8.369-21.238h7.59l8.279,21.238H405.162z M430.184,31.677h-14.249V10.438
	h7.199v15.119h7.05V31.677z M450.733,17.968c3.061,0.99,7.17,2.34,7.17,6.72c0,5.13-4.47,7.59-8.76,7.59
	c-3.42,0-6.779-1.29-8.94-3.21l4.351-4.74c0.99,1.08,2.82,2.07,4.561,2.07c0.81,0,1.589-0.24,1.589-0.99
	c0-0.779-0.75-1.08-3.75-2.07c-2.88-0.959-5.489-2.489-5.489-6.209c0-5.279,4.739-7.29,8.91-7.29c2.788,0,5.91,1.14,8.1,3.149
	l-4.439,4.53c-0.961-1.2-2.551-1.829-3.66-1.829c-1.051,0-1.74,0.27-1.74,0.959C448.634,17.278,449.264,17.487,450.733,17.968z
	 M469.394,31.677h-7.199V10.438h7.199V31.677z M490.662,16.468h-5.22v15.209h-7.139V16.468h-5.221v-6.029h17.579V16.468z
	 M509.473,31.677h-15.119V10.438h14.609v5.939h-7.89v1.83h7.41v5.55h-7.41v1.979h8.399V31.677z"/>
<g>
</g>
<g>
</g>
<g>
</g>
<g>
</g>
<g>
</g>
<g>
</g>
</svg>
